<svg version="1.1" id="Uploaded to svgrepo.com" xmlns="http://www.w3.org/2000/svg" width="800" height="800" viewBox="0 0 32 32" xml:space="preserve"><style>.pictogram_een{fill:#f4d6b0}.st0{fill:#f27261}.st1{fill:none}.st2{-webkit-clip-path:url(#SVGID_2_);-webkit-clip-path:url(#SVGID_2_);clip-path:url(#SVGID_2_);fill:#f27261}.st3{-webkit-clip-path:url(#SVGID_2_);-webkit-clip-path:url(#SVGID_2_);clip-path:url(#SVGID_2_);fill:none}.st4{-webkit-clip-path:url(#SVGID_6_);-webkit-clip-path:url(#SVGID_6_);clip-path:url(#SVGID_6_);fill:#f4d6b0}.st5{-webkit-clip-path:url(#SVGID_8_);-webkit-clip-path:url(#SVGID_8_);clip-path:url(#SVGID_8_);fill:#f27261}.st6{-webkit-clip-path:url(#SVGID_8_);-webkit-clip-path:url(#SVGID_8_);clip-path:url(#SVGID_8_);fill:none}.st7{-webkit-clip-path:url(#SVGID_10_);-webkit-clip-path:url(#SVGID_10_);clip-path:url(#SVGID_10_);fill:#f27261}.st8{-webkit-clip-path:url(#SVGID_10_);-webkit-clip-path:url(#SVGID_10_);clip-path:url(#SVGID_10_);fill:none}.st9{fill:#f4d6b0}</style><path d="M32 29c0 1.65-1.35 3-3 3H3c-1.65 0-3-1.35-3-3V3c0-1.65 1.35-3 3-3h26c1.65 0 3 1.35 3 3v26z" style="fill:#e54d2e"/><path class="pictogram_een" d="M16.634 17.742A6.783 6.783 0 0 1 14 18l-5.834 5.834 6.365 6.365c.808.808 2.13.808 2.938 0l4.076-4.076-4.911-8.381zM30.198 17.469a2.082 2.082 0 0 0 0-2.937l-6.365-6.365-2.381 2.381a6.787 6.787 0 0 1-2.21 5.711l4.495 7.67 6.461-6.46z"/><path d="M14.666 4.394c-4.158 0-7.421 3.88-6.722 7.974.583 3.418 3.775 5.906 7.231 5.646 3.764-.283 6.641-3.714 6.277-7.466-.335-3.454-3.325-6.154-6.786-6.154z" style="fill:#0c6667"/><path d="M25.447 26.848 19.242 16.26a6.926 6.926 0 0 1-.579.472l-.004.003a6.774 6.774 0 0 1-2.025 1.008l6.225 10.622a1.497 1.497 0 0 0 2.053.536 1.5 1.5 0 0 0 .535-2.053z" style="fill:#01a59c"/><path d="M14.666 4.394a6.78 6.78 0 0 0-4.124 1.397l3.989-3.989a2.083 2.083 0 0 1 2.938 0l6.365 6.365-2.381 2.381a6.82 6.82 0 0 0-6.787-6.154zm-6.82 6.82A6.78 6.78 0 0 1 9.243 7.09l-7.442 7.442a2.082 2.082 0 0 0 0 2.937l6.365 6.365L14 18a6.82 6.82 0 0 1-6.154-6.786zm6.82 3.819c2.106 0 3.82-1.714 3.82-3.82s-1.713-3.82-3.82-3.82-3.82 1.713-3.82 3.82 1.714 3.82 3.82 3.82z" style="fill:#f8ad89"/></svg>